<?xml version="1.0" encoding="UTF-8"?>
<svg id="Layer_1" data-name="Layer 1" xmlns="http://www.w3.org/2000/svg" viewBox="0 0 65.16 90">
  <defs>
    <style>
      .cls-1, .cls-2 {
        fill: #5ece71;
      }

      .cls-2 {
        fill-rule: evenodd;
      }
    </style>
  </defs>
  <path class="cls-1" d="m52.83,24.1H12.33c-.83,0-1.5.67-1.5,1.5s.67,1.5,1.5,1.5h40.5c.83,0,1.5-.67,1.5-1.5s-.67-1.5-1.5-1.5Z"/>
  <path class="cls-1" d="m12.33,15.5h25.58c.83,0,1.5-.67,1.5-1.5s-.67-1.5-1.5-1.5H12.33c-.83,0-1.5.67-1.5,1.5s.67,1.5,1.5,1.5Z"/>
  <path class="cls-1" d="m61.1,87H4.06c-.58,0-1.06-.48-1.06-1.06V4.06c0-.58.48-1.06,1.06-1.06h42.02v12.06c0,.83.67,1.5,1.5,1.5h14.58v69.38c0,.58-.47,1.06-1.06,1.06h0Zm4.04-72.15c-.01-.05-.02-.09-.02-.14-.01-.05-.03-.09-.04-.14-.02-.05-.03-.09-.05-.14-.02-.04-.04-.09-.07-.13-.02-.04-.05-.09-.08-.12-.03-.04-.06-.07-.09-.11-.04-.04-.07-.08-.11-.11-.02-.02-.03-.03-.04-.04L48.55.36s-.04-.03-.06-.04c-.04-.03-.09-.06-.13-.09-.04-.02-.08-.05-.12-.07-.05-.02-.09-.04-.14-.06-.05-.02-.1-.04-.14-.05s-.1-.02-.14-.03c-.05,0-.1,0-.15-.02H4.06C1.82,0,0,1.82,0,4.06v81.88c0,2.24,1.82,4.06,4.06,4.06h57.04c2.24,0,4.06-1.82,4.06-4.06V15.06s0-.04-.01-.06c.01-.05,0-.1,0-.15h0Z"/>
  <g id="Layer_2" data-name="Layer 2">
    <path id="path0" class="cls-2" d="m34.14,31.5c-.15.01-.69.06-1.21.1-.89.07-2.24.23-2.46.3-.06.02-.3.06-.54.1-1.75.27-3.93.98-5.15,1.67-.22.13-.46.25-.54.28-.28.11-2.11,1.39-2.79,1.95-5.02,4.11-7.68,10.53-6.56,15.84.14.65.15.65.61.31.73-.55,1.38-.96,2.28-1.48.53-.3,2.81-1.41,2.9-1.41.01,0,.19-.07.38-.16,1.99-.92,7.8-2.91,10.72-3.68.11-.03.61-.17,1.11-.3,2.77-.76,3.23-.86,3.23-.72,0,.03-.16.11-.35.17-.95.33-3.54,1.37-3.65,1.47-.03.03-.1.06-.15.06-.04,0-.28.09-.52.2s-.45.2-.48.2c-.02,0-.27.1-.55.24-.27.13-.52.24-.53.24s-.29.12-.61.27-.59.27-.61.27c-.28,0-6.77,3.39-8.82,4.61-.47.28-.86.51-.87.51-.02,0-.65.4-2.69,1.68-2.27,1.43-6.05,4.11-8.38,5.94-.28.22-.61.48-.74.58-2.02,1.57-2.28,1.86-1.13,1.26,2.58-1.35,5.46-2.7,7.52-3.52,1.27-.51,2.6-.88,3.5-.99l.38-.04.94.94c2.45,2.45,5.08,3.69,8.97,4.23.93.13,3.88.11,4.59-.03.21-.04.66-.12,1.01-.18s.73-.14.84-.17.4-.11.64-.17c4.47-1.16,8.29-3.93,11.68-8.46.07-.1.38-.49.67-.88.3-.38.6-.79.68-.9s.27-.38.42-.61c1.76-2.49,4.26-6.58,5.87-9.62.17-.33.46-.86.63-1.18.17-.31.72-1.41,1.22-2.42.5-1.02.94-1.9.98-1.97.14-.27.09-.33-.58-.59-.07-.03-.57-.2-1.11-.37s-1.14-.37-1.34-.44c-.88-.3-2.35-.72-4.14-1.2-1.55-.41-1.97-.52-2.56-.65-.3-.07-.62-.14-.71-.17s-.35-.09-.57-.13c-.62-.12-.9-.17-1.48-.3-2.16-.47-4.04-.64-7.24-.67-1.33-.03-2.56-.03-2.71-.01"/>
  </g>
  <path class="cls-1" d="m52.84,67.07H12.34c-.83,0-1.5.67-1.5,1.5s.67,1.5,1.5,1.5h40.5c.83,0,1.5-.67,1.5-1.5s-.68-1.5-1.5-1.5Z"/>
  <path class="cls-1" d="m52.83,78.67H12.33c-.83,0-1.5.67-1.5,1.5s.67,1.5,1.5,1.5h40.5c.83,0,1.5-.67,1.5-1.5s-.67-1.5-1.5-1.5Z"/>
</svg>