<svg xmlns="http://www.w3.org/2000/svg" xml:space="preserve" style="fill-rule:evenodd;clip-rule:evenodd;stroke-linejoin:round;stroke-miterlimit:2" viewBox="0 0 123 123"><path d="M68.001 28.758c-.311.027-1.455.119-2.544.21-1.876.146-4.694.485-5.152.631-.119.037-.622.128-1.126.21-3.679.577-8.236 2.059-10.798 3.505-.467.265-.97.531-1.126.586-.586.229-4.429 2.91-5.857 4.081-10.514 8.62-16.096 22.081-13.754 33.199.284 1.354.32 1.373 1.281.659 1.537-1.144 2.892-2.013 4.777-3.093 1.107-.631 5.884-2.956 6.076-2.956.027 0 .393-.156.805-.339 4.182-1.922 16.362-6.094 22.474-7.705.229-.064 1.281-.348 2.324-.631 5.802-1.583 6.772-1.794 6.772-1.519 0 .055-.329.229-.741.366-1.995.695-7.43 2.883-7.65 3.075a.54.54 0 0 1-.311.119c-.092 0-.586.192-1.089.421s-.952.421-1.007.421c-.046 0-.567.22-1.144.494-.577.275-1.08.494-1.116.494s-.604.256-1.272.567-1.245.567-1.281.567c-.595 0-14.193 7.11-18.485 9.663-.979.586-1.803 1.061-1.83 1.061-.046 0-1.373.833-5.637 3.532-4.749 3.001-12.683 8.62-17.57 12.454-.586.458-1.281.997-1.546 1.208-4.237 3.294-4.777 3.898-2.37 2.635 5.408-2.828 11.438-5.655 15.776-7.376 2.654-1.061 5.454-1.848 7.348-2.077l.787-.092 1.967 1.967c5.134 5.134 10.661 7.742 18.796 8.867 1.94.265 8.144.229 9.627-.055.43-.082 1.382-.256 2.114-.375a30 30 0 0 0 1.766-.348c.238-.064.833-.229 1.336-.357 9.37-2.434 17.387-8.236 24.488-17.743.156-.21.787-1.034 1.409-1.839a65 65 0 0 0 1.418-1.885c.165-.229.558-.805.888-1.272 3.697-5.216 8.931-13.799 12.308-20.178.366-.695.961-1.812 1.318-2.471s1.501-2.947 2.562-5.079a574 574 0 0 1 2.05-4.127c.302-.558.183-.686-1.208-1.245a85 85 0 0 0-2.324-.778c-1.126-.366-2.398-.778-2.818-.924-1.848-.622-4.923-1.51-8.675-2.507-3.249-.86-4.136-1.089-5.362-1.354a23 23 0 0 1-1.482-.366 11 11 0 0 0-1.199-.275 93 93 0 0 1-3.102-.631c-4.539-.979-8.474-1.336-15.172-1.4-2.837-.037-5.408-.027-5.719 0" style="fill:#42506c"/></svg>