<?xml version="1.0" encoding="UTF-8"?>
<svg id="Layer_1" data-name="Layer 1" xmlns="http://www.w3.org/2000/svg" viewBox="0 0 216.35 207.29">
  <defs>
    <style>
      .cls-1 {
        fill: #0d3349;
      }

      .cls-2 {
        fill: #5ece71;
        fill-rule: evenodd;
      }
    </style>
  </defs>
  <path class="cls-1" d="m36.44,164.64v-22.93h16.19v64.76h-15.44l-.75-5.65c-2.29,4.27-7.69,6.47-14.68,6.47-12.22,0-21.76-9.89-21.76-24.56s9.54-24.57,21.76-24.57c7.01,0,12.41,2.42,14.68,6.48Zm0,18.09c0-6.74-4.54-10.88-10.15-10.88s-10.1,4.14-10.1,10.88,4.58,10.88,10.1,10.88,10.15-4.15,10.15-10.88Z"/>
  <path class="cls-1" d="m110.02,187.09h-35.14c1.38,4.79,5.18,7.55,9.54,7.55s7-2.07,9-5.7l13.77,6.65c-4.6,7.56-13.36,11.69-22.75,11.69-14.08,0-26.29-8.81-26.29-24.56s12.19-24.56,26.29-24.56c15.69,0,27.09,10.32,25.58,28.93Zm-35.23-8.73h19.26c-.88-4.55-4.98-7.77-9.61-7.55-5,0-8.4,2.76-9.65,7.55Z"/>
  <path class="cls-1" d="m165.33,158.98l-15.67,47.49h-23.75l-15.58-47.49h17.27l10.27,33.11,10.23-33.11h17.23Z"/>
  <path class="cls-1" d="m193.44,173.28c-.35-2.51-2.56-4.35-5.1-4.23-3.32,0-5.22,1.25-5.22,3.41,0,2.33,3,3.32,6,4.06,15,3.63,22,6.47,21.63,15.28-.31,10-7.83,15.48-22.31,15.48s-22.19-5.48-22.58-15.24l16.15-1.17c.39,3.24,3.06,5.23,6.43,5.23s6-1.34,6-3.8c0-2.77-4.58-4.62-9.16-5.66-13.55-3.24-18.43-5.35-18.43-14.59s8.16-13.86,21.8-13.86c12.69,0,20.51,4.88,20.9,14.29l-16.11.8Z"/>
  <path class="cls-2" d="m122.11.02l-5.08.42c-3.45.24-6.88.66-10.28,1.26-.24,0-1.24.26-2.25.42-7.5,1.21-14.78,3.57-21.56,7-.73.43-1.49.81-2.26,1.16-4.06,2.47-7.97,5.19-11.7,8.14-21,17.28-32.13,44.1-27.45,66.31.55,2.69.63,2.73,2.55,1.31,3.05-2.26,6.24-4.32,9.55-6.17,2.19-1.26,11.74-5.93,12.13-5.93l1.57-.66c14.65-6,29.64-11.14,44.89-15.4l4.64-1.26c11.58-3.16,13.52-3.58,13.52-3-.43.35-.94.6-1.48.74-4,1.38-14.85,5.75-15.28,6.14-.18.14-.39.22-.61.24-.75.2-1.48.48-2.18.83-.65.32-1.32.6-2,.85-.79.28-1.56.62-2.3,1-1.14.53-2.15,1-2.23,1s-1.21.49-2.53,1.12-2.49,1.13-2.55,1.13c-1.2,0-28.36,14.21-36.92,19.31-2,1.16-3.6,2.11-3.65,2.11s-2.75,1.66-11.27,7.06c-9.43,5.89-25.26,17.13-35.05,24.82l-3.13,2.43c-8.45,6.59-9.54,7.79-4.74,5.28,10.87-5.65,22.87-11.3,31.54-14.74,4.72-1.93,9.64-3.3,14.68-4.09l1.56-.18,4,4c10.26,10.26,21.29,15.46,37.56,17.79,6.4.52,12.84.48,19.23-.12.85-.16,2.76-.51,4.23-.75s3-.55,3.52-.69l2.66-.71c18.72-4.87,34.73-16.45,48.9-35.44l2.77-3.82c1.24-1.62,2.51-3.32,2.82-3.77s1.11-1.6,1.78-2.53c8.91-12.99,17.1-26.46,24.52-40.35.73-1.4,2-3.62,2.65-4.94l5.1-10.14c2.11-4.21,4-7.91,4.11-8.24.59-1.13.35-1.37-2.41-2.49l-4.65-1.54c-2.25-.74-4.8-1.57-5.63-1.86-3.7-1.25-9.88-3-17.33-5-6.49-1.72-8.27-2.18-10.72-2.71-1.22-.28-2.57-.61-2.94-.73s-1.46-.38-2.39-.56c-2.63-.49-3.78-.73-6.21-1.26C153.86.77,143.71-.16,133.55.02h-11.42"/>
</svg>