<?xml version="1.0" encoding="UTF-8"?>
<svg id="Layer_1" data-name="Layer 1" xmlns="http://www.w3.org/2000/svg" viewBox="0 0 32 31.32">
  <defs>
    <style>
      .cls-1 {
        fill: #5ece71;
      }
    </style>
  </defs>
  <path class="cls-1" d="m27.6,12.07l-.81-1.92s1.88-4.24,1.71-4.4l-2.49-2.43c-.17-.17-4.41,1.77-4.41,1.77l-1.96-.79s-1.73-4.3-1.97-4.3h-3.51c-.24,0-1.84,4.31-1.84,4.31l-1.95.79s-4.33-1.84-4.5-1.68l-2.48,2.43c-.17.17,1.81,4.33,1.81,4.33l-.81,1.92s-4.39,1.69-4.39,1.92v3.44c0,.24,4.4,1.81,4.4,1.81l.81,1.91s-1.88,4.24-1.72,4.4l2.49,2.43c.17.17,4.41-1.77,4.41-1.77l1.96.79s1.73,4.29,1.97,4.29h3.51c.24,0,1.84-4.31,1.84-4.31l1.96-.79s4.32,1.84,4.49,1.68l2.49-2.43c.17-.17-1.81-4.32-1.81-4.32l.81-1.92s4.39-1.69,4.39-1.93v-3.44c0-.23-4.4-1.79-4.4-1.79Zm-3.65.79s-.14.29-.3.61c-.16.31-.33.65-.38.75-.06.1-.15.27-.2.37-.5.95-1.28,2.22-1.83,3-.05.07-.11.16-.13.19-.02.03-.12.16-.21.28-.09.12-.19.24-.21.27-1.06,1.42-2.25,2.28-3.64,2.64-.08.02-.16.04-.2.05-.03.01-.15.03-.26.05-.1.02-.25.05-.31.06-.22.04-1.14.05-1.43.01-1.21-.17-2.03-.56-2.79-1.32l-.29-.29h-.12c-.28.05-.7.16-1.09.32-.65.26-1.55.68-2.35,1.1-.36.19-.28.1.35-.39.04-.03.14-.11.23-.18.72-.57,1.9-1.4,2.61-1.85.64-.41.83-.53.84-.53,0,0,.12-.07.27-.16.64-.38,2.66-1.44,2.75-1.44,0,0,.09-.03.19-.08.1-.04.18-.08.19-.08s.08-.03.17-.07c.09-.04.16-.07.17-.07s.08-.03.15-.06c.07-.03.15-.06.16-.06.02,0,.04-.01.05-.02.04-.03.84-.36,1.14-.46.06-.02.11-.04.11-.05,0-.04-.15,0-1.01.23-.16.04-.32.08-.35.09-.91.24-2.72.86-3.34,1.15-.06.03-.12.05-.12.05-.03,0-.74.35-.9.44-.28.16-.48.29-.71.46-.14.1-.15.1-.19-.1-.35-1.66.48-3.66,2.04-4.94.21-.18.78-.58.87-.61.03-.01.1-.05.17-.09.39-.21,1.06-.43,1.61-.52.08-.01.15-.02.17-.03.07-.02.49-.07.77-.09.16-.01.33-.03.38-.03.04,0,.42-.01.81-.01,1,.01,1.59.06,2.26.21.18.04.27.05.46.09.07,0,.15.03.18.04.03.01.13.03.22.05.19.04.32.07.8.2.56.15,1.02.28,1.29.37.06.02.25.09.42.14.17.06.33.11.35.12.21.09.22.11.18.19Z"/>
</svg>