<?xml version="1.0" encoding="utf-8"?>
<!-- Generator: Adobe Illustrator 26.0.2, SVG Export Plug-In . SVG Version: 6.00 Build 0)  -->
<svg version="1.1" id="Layer_1" xmlns="http://www.w3.org/2000/svg" xmlns:xlink="http://www.w3.org/1999/xlink" x="0px" y="0px"
	 viewBox="0 0 65.16 90" style="enable-background:new 0 0 65.16 90;" xml:space="preserve">
<style type="text/css">
	.st0{fill:#35B566;}
	.st1{fill-rule:evenodd;clip-rule:evenodd;fill:#3AAC57;}
</style>
<path class="st0" d="M52.83,24.1h-40.5c-0.83,0-1.5,0.67-1.5,1.5c0,0.83,0.67,1.5,1.5,1.5h40.5c0.83,0,1.5-0.67,1.5-1.5
	C54.33,24.77,53.66,24.1,52.83,24.1z"/>
<path class="st0" d="M12.33,15.5h25.58c0.83,0,1.5-0.67,1.5-1.5s-0.67-1.5-1.5-1.5H12.33c-0.83,0-1.5,0.67-1.5,1.5
	S11.5,15.5,12.33,15.5z"/>
<path class="st0" d="M61.1,87H4.06C3.48,87,3,86.52,3,85.94L3,4.06C3,3.48,3.48,3,4.06,3h42.02v12.06c0,0.83,0.67,1.5,1.5,1.5h14.58
	v69.38C62.16,86.52,61.69,87,61.1,87L61.1,87z M65.14,14.85c-0.01-0.05-0.02-0.09-0.02-0.14c-0.01-0.05-0.03-0.09-0.04-0.14
	c-0.02-0.05-0.03-0.09-0.05-0.14c-0.02-0.04-0.04-0.09-0.07-0.13c-0.02-0.04-0.05-0.09-0.08-0.12c-0.03-0.04-0.06-0.07-0.09-0.11
	c-0.04-0.04-0.07-0.08-0.11-0.11c-0.02-0.02-0.03-0.03-0.04-0.04L48.55,0.36c-0.02-0.02-0.04-0.03-0.06-0.04
	c-0.04-0.03-0.09-0.06-0.13-0.09c-0.04-0.02-0.08-0.05-0.12-0.07c-0.05-0.02-0.09-0.04-0.14-0.06C48.05,0.08,48,0.06,47.96,0.05
	s-0.1-0.02-0.14-0.03c-0.05-0.01-0.1-0.01-0.15-0.02c-0.03,0-0.05,0-0.08,0H4.06C1.82,0,0,1.82,0,4.06v81.88
	C0,88.18,1.82,90,4.06,90H61.1c2.24,0,4.06-1.82,4.06-4.06V15.06c0-0.02,0-0.04-0.01-0.06C65.16,14.95,65.15,14.9,65.14,14.85
	L65.14,14.85z"/>
<g id="Layer_2_00000006693389842383697160000016277831733099867009_">
	<path id="path0" class="st1" d="M34.14,31.5c-0.15,0.01-0.69,0.06-1.21,0.1c-0.89,0.07-2.24,0.23-2.46,0.3
		c-0.06,0.02-0.3,0.06-0.54,0.1c-1.75,0.27-3.93,0.98-5.15,1.67c-0.22,0.13-0.46,0.25-0.54,0.28c-0.28,0.11-2.11,1.39-2.79,1.95
		c-5.02,4.11-7.68,10.53-6.56,15.84c0.14,0.65,0.15,0.65,0.61,0.31c0.73-0.55,1.38-0.96,2.28-1.48c0.53-0.3,2.81-1.41,2.9-1.41
		c0.01,0,0.19-0.07,0.38-0.16c1.99-0.92,7.8-2.91,10.72-3.68c0.11-0.03,0.61-0.17,1.11-0.3c2.77-0.76,3.23-0.86,3.23-0.72
		c0,0.03-0.16,0.11-0.35,0.17c-0.95,0.33-3.54,1.37-3.65,1.47c-0.03,0.03-0.1,0.06-0.15,0.06c-0.04,0-0.28,0.09-0.52,0.2
		s-0.45,0.2-0.48,0.2c-0.02,0-0.27,0.1-0.55,0.24c-0.27,0.13-0.52,0.24-0.53,0.24s-0.29,0.12-0.61,0.27
		c-0.32,0.15-0.59,0.27-0.61,0.27c-0.28,0-6.77,3.39-8.82,4.61c-0.47,0.28-0.86,0.51-0.87,0.51c-0.02,0-0.65,0.4-2.69,1.68
		c-2.27,1.43-6.05,4.11-8.38,5.94c-0.28,0.22-0.61,0.48-0.74,0.58c-2.02,1.57-2.28,1.86-1.13,1.26c2.58-1.35,5.46-2.7,7.52-3.52
		c1.27-0.51,2.6-0.88,3.5-0.99l0.38-0.04l0.94,0.94c2.45,2.45,5.08,3.69,8.97,4.23c0.93,0.13,3.88,0.11,4.59-0.03
		c0.21-0.04,0.66-0.12,1.01-0.18c0.35-0.06,0.73-0.14,0.84-0.17c0.11-0.03,0.4-0.11,0.64-0.17c4.47-1.16,8.29-3.93,11.68-8.46
		c0.07-0.1,0.38-0.49,0.67-0.88c0.3-0.38,0.6-0.79,0.68-0.9c0.08-0.11,0.27-0.38,0.42-0.61c1.76-2.49,4.26-6.58,5.87-9.62
		c0.17-0.33,0.46-0.86,0.63-1.18c0.17-0.31,0.72-1.41,1.22-2.42c0.5-1.02,0.94-1.9,0.98-1.97c0.14-0.27,0.09-0.33-0.58-0.59
		c-0.07-0.03-0.57-0.2-1.11-0.37c-0.54-0.17-1.14-0.37-1.34-0.44c-0.88-0.3-2.35-0.72-4.14-1.2c-1.55-0.41-1.97-0.52-2.56-0.65
		c-0.3-0.07-0.62-0.14-0.71-0.17c-0.09-0.03-0.35-0.09-0.57-0.13c-0.62-0.12-0.9-0.17-1.48-0.3c-2.16-0.47-4.04-0.64-7.24-0.67
		C35.52,31.48,34.29,31.48,34.14,31.5"/>
</g>
<path class="st0" d="M52.84,67.07h-40.5c-0.83,0-1.5,0.67-1.5,1.5c0,0.83,0.67,1.5,1.5,1.5h40.5c0.83,0,1.5-0.67,1.5-1.5
	C54.34,67.74,53.66,67.07,52.84,67.07z"/>
<path class="st0" d="M52.83,78.67h-40.5c-0.83,0-1.5,0.67-1.5,1.5c0,0.83,0.67,1.5,1.5,1.5h40.5c0.83,0,1.5-0.67,1.5-1.5
	C54.33,79.34,53.66,78.67,52.83,78.67z"/>
</svg>
