<?xml version="1.0" encoding="UTF-8"?>
<svg id="Layer_2" data-name="Layer 2" xmlns="http://www.w3.org/2000/svg" viewBox="0 0 180.97 118.79">
  <defs>
    <style>
      .cls-1 {
        letter-spacing: -.02em;
      }

      .cls-2 {
        letter-spacing: -.03em;
      }

      .cls-3, .cls-4 {
        fill: #5ece71;
      }

      .cls-5 {
        letter-spacing: 0em;
      }

      .cls-4 {
        font-family: Redaction-Bold, Redaction;
        font-size: 41px;
        font-weight: 700;
      }

      .cls-6 {
        fill: none;
        stroke: #5ece71;
        stroke-miterlimit: 10;
      }

      .cls-7 {
        letter-spacing: 0em;
      }
    </style>
  </defs>
  <g id="Layer_1-2" data-name="Layer 1">
    <g id="Community">
      <g id="footer">
        <g id="Group-14">
          <g id="chia-logo-">
            <polygon id="Rectangle-path" class="cls-3" points="105.6 18.61 118.6 18.61 118.6 56.61 105.6 56.61 105.6 18.61"/>
            <g id="Group">
              <path id="Shape" class="cls-3" d="m87.75,15.76c-5,0-10.11,1.2-11.38,3.42-.02.03-.03.05-.05.08V3.32h-13.35v25.34c1.33.61,2.69,1.3,4.07,2.09.47.27.86.5,1.15.68.18.11.36.22.55.33.02.01-7.63,11.92-18.05,14.42-6.15,1.48-13.42-.31-14.9-6.48-.06-.26-.1-.51-.14-.77.98-.58,1.98-1.12,2.99-1.62,2.55-1.11,4.49-1.94,5.23-2.23.06-.02.13-.05.19-.07h0c6.08-2.2,11.18-2.96,11.18-2.96-4.63-.4-8.61-.08-11.94.58h0s-.03,0-.07.02c-3.01.6-5.49,1.48-7.42,2.36,1.07-4.45,4.94-8.31,9.53-9.42.4-.1.81-.17,1.22-.24.12-.02.24-.03.35-.05.32-.04.64-.08.96-.1.1,0,.21-.02.31-.02.41-.03.82-.04,1.24-.04h.24c.34,0,.69.02,1.03.04.12,0,.24.02.36.03s.24.02.36.03c1.97.2,4.4.73,7.08,1.65v-8.74c-1.3-.4-2.67-.79-4.1-1.14-3.76-1-10.23-2.07-17.3-.35-11.37,2.77-14.59,11.18-14.59,21.46,0,1.31.1,2.54.29,3.69-2.47,1.63-4.89,3.51-7.1,5.65,0,0,3.28-1.46,7.61-3.39,2.89,9.87,12.98,13.19,20.57,13.19s13.01-2.26,19.06-6.04v4.79h13.35v-23.75s.03-.06.05-.09v-.4c1.27-3.39,3.43-4.27,5.83-4.27,3.17,0,5.15,2.25,5.15,5.83v22.68h13.35v-26.53c0-8.35-5.22-13.72-12.95-13.72"/>
              <path id="Shape-2" class="cls-3" d="m111.88,0c-4.03,0-6.87,2.85-6.87,6.89s2.84,6.89,6.87,6.89,6.87-2.85,6.87-6.89-2.84-6.89-6.87-6.89"/>
              <path id="Shape-3" class="cls-3" d="m162.99,34.48h.02v-16.93h-13.38l-.07,2.41c-12.89-8.3-21.12.24-21.12.24-3.94,3.6-6.22,9.3-6.22,16.44,0,12.67,7.59,20.2,17.46,20.2,3.7,0,7.11-.84,10.05-4.92.34.95,1.1,3.28,1.64,4.08h13.91c-2.38-3.93-2.36-17.54-2.29-21.52m-20.2,11.38c-4.33,0-7.38-3.77-7.38-9.11s3.05-9.11,7.38-9.11c3.04,0,5.44,1.85,6.61,4.81v8.62c-1.17,2.95-3.57,4.81-6.61,4.81"/>
            </g>
          </g>
        </g>
      </g>
    </g>
  </g>
  <g id="Layer_2-2" data-name="Layer 2">
    <text class="cls-4" transform="translate(0 108.09)"><tspan class="cls-1" x="0" y="0">A</tspan><tspan class="cls-7" x="30.5" y="0">c</tspan><tspan class="cls-5" x="50.27" y="0">ade</tspan><tspan class="cls-2" x="119.15" y="0">m</tspan><tspan x="155.92" y="0">y</tspan></text>
    <line class="cls-6" x1=".2" y1="67.27" x2="180.77" y2="67.27"/>
  </g>
</svg>