<?xml version="1.0" encoding="UTF-8"?>
<svg id="Layer_1" data-name="Layer 1" xmlns="http://www.w3.org/2000/svg" viewBox="0 0 117.5 71.48">
  <defs>
    <style>
      .cls-1 {
        fill: #5ece71;
        fill-rule: evenodd;
      }
    </style>
  </defs>
  <g id="Layer_2" data-name="Layer 2">
    <path id="path0" class="cls-1" d="m65.92.03c-.34.03-1.59.13-2.78.23-2.05.16-5.13.53-5.63.69-.13.04-.68.14-1.23.23-4.02.63-9,2.25-11.8,3.83-.51.29-1.06.58-1.23.64-.64.25-4.84,3.18-6.4,4.46-11.49,9.42-17.59,24.13-15.03,36.28.31,1.48.35,1.5,1.4.72,1.68-1.25,3.16-2.2,5.22-3.38,1.21-.69,6.43-3.23,6.64-3.23.03,0,.43-.17.88-.37,4.57-2.1,17.88-6.66,24.56-8.42.25-.07,1.4-.38,2.54-.69,6.34-1.73,7.4-1.96,7.4-1.66,0,.06-.36.25-.81.4-2.18.76-8.12,3.15-8.36,3.36-.08.07-.23.13-.34.13-.1,0-.64.21-1.19.46s-1.04.46-1.1.46c-.05,0-.62.24-1.25.54s-1.18.54-1.22.54-.66.28-1.39.62-1.36.62-1.4.62c-.65,0-15.51,7.77-20.2,10.56-1.07.64-1.97,1.16-2,1.16-.05,0-1.5.91-6.16,3.86-5.19,3.28-13.86,9.42-19.2,13.61-.64.5-1.4,1.09-1.69,1.32-4.63,3.6-5.22,4.26-2.59,2.88,5.91-3.09,12.5-6.18,17.24-8.06,2.9-1.16,5.96-2.02,8.03-2.27l.86-.1,2.15,2.15c5.61,5.61,11.65,8.46,20.54,9.69,2.12.29,8.9.25,10.52-.06.47-.09,1.51-.28,2.31-.41.81-.14,1.67-.31,1.93-.38s.91-.25,1.46-.39c10.24-2.66,19-9,26.76-19.39.17-.23.86-1.13,1.54-2.01.68-.88,1.38-1.81,1.55-2.06.18-.25.61-.88.97-1.39,4.04-5.7,9.76-15.08,13.45-22.05.4-.76,1.05-1.98,1.44-2.7s1.64-3.22,2.8-5.55c1.15-2.33,2.16-4.36,2.24-4.51.33-.61.2-.75-1.32-1.36-.17-.07-1.31-.45-2.54-.85-1.23-.4-2.62-.85-3.08-1.01-2.02-.68-5.38-1.65-9.48-2.74-3.55-.94-4.52-1.19-5.86-1.48-.68-.15-1.41-.33-1.62-.4s-.8-.21-1.31-.3c-1.43-.27-2.06-.4-3.39-.69C83.79.49,79.49.1,72.17.03c-3.1-.04-5.91-.03-6.25,0"/>
  </g>
</svg>