<?xml version="1.0" encoding="UTF-8"?><svg id="a" xmlns="http://www.w3.org/2000/svg" width="23.99" height="18.19" viewBox="0 0 23.99 18.19"><g id="b"><g id="c"><g id="d"><path d="M20.33,1.52c-1.58-.72-3.24-1.23-4.95-1.52-.23.42-.45.85-.63,1.29-1.82-.27-3.67-.27-5.5,0-.19-.44-.4-.87-.63-1.29-1.71.29-3.38.81-4.96,1.53C.53,6.16-.32,10.68.1,15.14H.1c1.84,1.36,3.89,2.39,6.07,3.05.49-.66.93-1.36,1.3-2.1-.71-.27-1.4-.59-2.05-.98.17-.12.34-.25.5-.38,3.85,1.81,8.3,1.81,12.14,0,.16.13.33.26.5.38-.65.39-1.34.71-2.05.98.37.73.81,1.43,1.3,2.1,2.19-.66,4.24-1.69,6.08-3.05h0c.5-5.17-.85-9.65-3.57-13.62h0ZM8.01,12.4c-1.18,0-2.16-1.07-2.16-2.4s.94-2.4,2.16-2.4,2.18,1.08,2.16,2.4-.95,2.4-2.16,2.4ZM15.99,12.4c-1.19,0-2.16-1.07-2.16-2.4s.94-2.4,2.16-2.4,2.18,1.08,2.16,2.4-.95,2.4-2.16,2.4Z" fill="#5ece71" stroke-width="0"/></g></g></g></svg>