<?xml version="1.0" encoding="UTF-8"?>
<svg id="Layer_1" data-name="Layer 1" xmlns="http://www.w3.org/2000/svg" xmlns:xlink="http://www.w3.org/1999/xlink" viewBox="0 0 32 32">
  <defs>
    <style>
      .cls-1 {
        fill: none;
      }

      .cls-2 {
        clip-path: url(#clippath);
      }

      .cls-3 {
        fill: #0d3349;
      }

      .cls-4 {
        fill: #5ece71;
        fill-rule: evenodd;
      }
    </style>
    <clipPath id="clippath">
      <rect class="cls-1" width="32" height="32"/>
    </clipPath>
  </defs>
  <g class="cls-2">
    <g>
      <path class="cls-3" d="m10.92,8.83c.07-.16.1-.34.08-.52s-.08-.35-.19-.5l-.35-.47c-.06-.08-.09-.16-.11-.25-.02-.09-.02-.19,0-.28s.06-.18.11-.26c.06-.08.13-.14.21-.18,1.89-1.05,4.05-1.51,6.21-1.33,2.16.18,4.21.98,5.91,2.32s2.97,3.15,3.64,5.2c.68,2.06.73,4.26.16,6.35-.03.31.06.62.24.88.18.26.45.44.75.52s.62.05.91-.08c.28-.13.51-.36.64-.65.71-2.63.62-5.4-.26-7.98-.88-2.57-2.51-4.83-4.67-6.47-2.17-1.64-4.78-2.6-7.49-2.76-2.72-.15-5.42.51-7.75,1.9-.13.09-.3.12-.46.09-.16-.03-.3-.12-.4-.25l-.43-.6c-.11-.14-.25-.26-.42-.33-.16-.07-.35-.1-.52-.07-.18.02-.35.09-.49.2-.14.11-.25.26-.32.42l-1.86,4.68c-.06.16-.08.33-.06.5s.09.33.19.47.23.25.39.32c.15.07.32.1.49.09l5.02-.37c.18-.01.35-.08.49-.18.15-.11.27-.25.34-.41Z"/>
      <path class="cls-3" d="m26.08,28.27l1.86-4.67c.05-.16.06-.33.04-.49-.03-.16-.09-.32-.19-.45-.1-.13-.23-.24-.38-.32-.15-.07-.31-.11-.48-.11l-5.02.37c-.18.01-.35.07-.5.18-.15.1-.26.24-.34.41-.07.16-.1.34-.09.52.02.18.09.35.19.49l.35.47c.06.08.09.16.11.25s.02.19,0,.28-.06.18-.11.26-.13.14-.21.18c-1.89,1.05-4.05,1.51-6.21,1.33-2.16-.18-4.21-.98-5.91-2.32s-2.97-3.15-3.64-5.2c-.68-2.06-.73-4.26-.16-6.35.03-.31-.06-.62-.24-.88s-.45-.44-.75-.52-.62-.05-.91.08c-.28.13-.51.36-.64.65-.71,2.62-.62,5.4.25,7.97s2.49,4.82,4.65,6.47,4.76,2.61,7.47,2.77c2.71.16,5.41-.49,7.75-1.87.14-.08.31-.11.47-.08s.3.12.4.25l.43.59c.11.15.25.26.41.33s.35.1.52.07c.18-.02.35-.09.49-.2s.25-.26.32-.42l.07-.04Z"/>
      <g id="Layer_2" data-name="Layer 2">
        <path id="path0" class="cls-4" d="m17.08,10.96s-.22.02-.39.03c-.29.02-.72.07-.79.1-.02.01-.1.02-.17.03-.57.09-1.27.32-1.67.54-.07.04-.15.08-.17.09-.09.04-.68.45-.9.63-1.62,1.33-2.48,3.41-2.12,5.12.04.21.05.21.2.1.24-.18.45-.31.74-.48.17-.1.91-.46.94-.46,0,0,.06-.02.12-.05.65-.3,2.52-.94,3.47-1.19.04-.01.2-.05.36-.1.9-.24,1.04-.28,1.04-.23,0,.01-.05.04-.11.06-.31.11-1.15.44-1.18.47-.01.01-.03.02-.05.02-.01,0-.09.03-.17.06s-.15.06-.16.06-.09.03-.18.08-.17.08-.17.08c0,0-.09.04-.2.09-.1.05-.19.09-.2.09-.09,0-2.19,1.1-2.85,1.49-.15.09-.28.16-.28.16-.01,0-.21.13-.87.54-.73.46-1.96,1.33-2.71,1.92-.09.07-.2.15-.24.19-.65.51-.74.6-.37.41.83-.44,1.76-.87,2.43-1.14.41-.16.84-.29,1.13-.32h.12s.3.29.3.29c.79.79,1.64,1.19,2.9,1.37.3.04,1.26.04,1.49-.01.07-.01.21-.04.33-.06.11-.02.24-.04.27-.05s.13-.04.21-.06c1.45-.38,2.68-1.27,3.78-2.74.02-.03.12-.16.22-.28.1-.12.19-.26.22-.29.03-.04.09-.12.14-.2.57-.8,1.38-2.13,1.9-3.11.06-.11.15-.28.2-.38.06-.1.23-.45.4-.78.16-.33.3-.62.32-.64.05-.09.03-.11-.19-.19-.02-.01-.18-.06-.36-.12-.17-.06-.37-.12-.43-.14-.29-.1-.76-.23-1.34-.39-.5-.13-.64-.17-.83-.21-.1-.02-.2-.05-.23-.06-.03-.01-.11-.03-.18-.04-.2-.04-.29-.06-.48-.1-.7-.15-1.31-.21-2.34-.22-.46,0-.86,0-.9.02"/>
      </g>
    </g>
  </g>
</svg>