<?xml version="1.0" encoding="utf-8"?>
<!-- Generator: Adobe Illustrator 26.0.2, SVG Export Plug-In . SVG Version: 6.00 Build 0)  -->
<svg version="1.1" id="Layer_1" xmlns="http://www.w3.org/2000/svg" xmlns:xlink="http://www.w3.org/1999/xlink" x="0px" y="0px"
	 viewBox="0 0 32 32" style="enable-background:new 0 0 32 32;" xml:space="preserve">
<style type="text/css">
	.st0{clip-path:url(#SVGID_00000106114731039467903310000011081341543177558410_);}
	.st1{fill:#3AAC59;}
	.st2{fill-rule:evenodd;clip-rule:evenodd;fill:#39AB57;}
</style>
<g>
	<defs>
		<rect id="SVGID_1_" width="32" height="32"/>
	</defs>
	<clipPath id="SVGID_00000088093774700097708230000010721567595913096373_">
		<use xlink:href="#SVGID_1_"  style="overflow:visible;"/>
	</clipPath>
	<g style="clip-path:url(#SVGID_00000088093774700097708230000010721567595913096373_);">
		<path class="st1" d="M10.92,8.83c0.07-0.16,0.1-0.34,0.08-0.52c-0.02-0.18-0.08-0.35-0.19-0.5l-0.35-0.47
			c-0.06-0.08-0.09-0.16-0.11-0.25c-0.02-0.09-0.02-0.19,0-0.28c0.02-0.09,0.06-0.18,0.11-0.26c0.06-0.08,0.13-0.14,0.21-0.18
			c1.89-1.05,4.05-1.51,6.21-1.33c2.16,0.18,4.21,0.98,5.91,2.32c1.7,1.34,2.97,3.15,3.64,5.2c0.68,2.06,0.73,4.26,0.16,6.35
			c-0.03,0.31,0.06,0.62,0.24,0.88c0.18,0.26,0.45,0.44,0.75,0.52c0.3,0.08,0.62,0.05,0.91-0.08c0.28-0.13,0.51-0.36,0.64-0.65
			c0.71-2.63,0.62-5.4-0.26-7.98c-0.88-2.57-2.51-4.83-4.67-6.47c-2.17-1.64-4.78-2.6-7.49-2.76c-2.72-0.15-5.42,0.51-7.75,1.9
			C8.83,4.36,8.66,4.39,8.5,4.36C8.34,4.33,8.2,4.24,8.1,4.11L7.67,3.51C7.56,3.37,7.42,3.25,7.25,3.18
			c-0.16-0.07-0.35-0.1-0.52-0.07C6.55,3.13,6.38,3.2,6.24,3.31C6.1,3.42,5.99,3.57,5.92,3.73L4.06,8.41C4,8.57,3.98,8.74,4,8.91
			c0.02,0.17,0.09,0.33,0.19,0.47c0.1,0.14,0.23,0.25,0.39,0.32c0.15,0.07,0.32,0.1,0.49,0.09l5.02-0.37
			c0.18-0.01,0.35-0.08,0.49-0.18C10.73,9.13,10.85,8.99,10.92,8.83z"/>
		<path class="st1" d="M26.08,28.27l1.86-4.67c0.05-0.16,0.06-0.33,0.04-0.49c-0.03-0.16-0.09-0.32-0.19-0.45
			c-0.1-0.13-0.23-0.24-0.38-0.32c-0.15-0.07-0.31-0.11-0.48-0.11l-5.02,0.37c-0.18,0.01-0.35,0.07-0.5,0.18
			c-0.15,0.1-0.26,0.24-0.34,0.41c-0.07,0.16-0.1,0.34-0.09,0.52c0.02,0.18,0.09,0.35,0.19,0.49l0.35,0.47
			c0.06,0.08,0.09,0.16,0.11,0.25c0.02,0.09,0.02,0.19,0,0.28c-0.02,0.09-0.06,0.18-0.11,0.26s-0.13,0.14-0.21,0.18
			c-1.89,1.05-4.05,1.51-6.21,1.33c-2.16-0.18-4.21-0.98-5.91-2.32c-1.7-1.34-2.97-3.15-3.64-5.2c-0.68-2.06-0.73-4.26-0.16-6.35
			c0.03-0.31-0.06-0.62-0.24-0.88c-0.18-0.26-0.45-0.44-0.75-0.52c-0.3-0.08-0.62-0.05-0.91,0.08c-0.28,0.13-0.51,0.36-0.64,0.65
			c-0.71,2.62-0.62,5.4,0.25,7.97c0.87,2.57,2.49,4.82,4.65,6.47c2.16,1.65,4.76,2.61,7.47,2.77c2.71,0.16,5.41-0.49,7.75-1.87
			c0.14-0.08,0.31-0.11,0.47-0.08c0.16,0.03,0.3,0.12,0.4,0.25l0.43,0.59c0.11,0.15,0.25,0.26,0.41,0.33
			c0.16,0.07,0.35,0.1,0.52,0.07c0.18-0.02,0.35-0.09,0.49-0.2c0.14-0.11,0.25-0.26,0.32-0.42L26.08,28.27z"/>
		<g id="Layer_2_00000006693389842383697160000016277831733099867009_">
			<path id="path0" class="st2" d="M17.08,10.96c-0.05,0-0.22,0.02-0.39,0.03c-0.29,0.02-0.72,0.07-0.79,0.1
				c-0.02,0.01-0.1,0.02-0.17,0.03c-0.57,0.09-1.27,0.32-1.67,0.54c-0.07,0.04-0.15,0.08-0.17,0.09c-0.09,0.04-0.68,0.45-0.9,0.63
				c-1.62,1.33-2.48,3.41-2.12,5.12c0.04,0.21,0.05,0.21,0.2,0.1c0.24-0.18,0.45-0.31,0.74-0.48c0.17-0.1,0.91-0.46,0.94-0.46
				c0,0,0.06-0.02,0.12-0.05c0.65-0.3,2.52-0.94,3.47-1.19c0.04-0.01,0.2-0.05,0.36-0.1c0.9-0.24,1.04-0.28,1.04-0.23
				c0,0.01-0.05,0.04-0.11,0.06c-0.31,0.11-1.15,0.44-1.18,0.47c-0.01,0.01-0.03,0.02-0.05,0.02c-0.01,0-0.09,0.03-0.17,0.06
				s-0.15,0.06-0.16,0.06c-0.01,0-0.09,0.03-0.18,0.08s-0.17,0.08-0.17,0.08s-0.09,0.04-0.2,0.09c-0.1,0.05-0.19,0.09-0.2,0.09
				c-0.09,0-2.19,1.1-2.85,1.49c-0.15,0.09-0.28,0.16-0.28,0.16c-0.01,0-0.21,0.13-0.87,0.54c-0.73,0.46-1.96,1.33-2.71,1.92
				c-0.09,0.07-0.2,0.15-0.24,0.19c-0.65,0.51-0.74,0.6-0.37,0.41c0.83-0.44,1.76-0.87,2.43-1.14c0.41-0.16,0.84-0.29,1.13-0.32
				l0.12-0.01l0.3,0.3c0.79,0.79,1.64,1.19,2.9,1.37c0.3,0.04,1.26,0.04,1.49-0.01c0.07-0.01,0.21-0.04,0.33-0.06
				c0.11-0.02,0.24-0.04,0.27-0.05s0.13-0.04,0.21-0.06c1.45-0.38,2.68-1.27,3.78-2.74c0.02-0.03,0.12-0.16,0.22-0.28
				c0.1-0.12,0.19-0.26,0.22-0.29c0.03-0.04,0.09-0.12,0.14-0.2c0.57-0.8,1.38-2.13,1.9-3.11c0.06-0.11,0.15-0.28,0.2-0.38
				c0.06-0.1,0.23-0.45,0.4-0.78c0.16-0.33,0.3-0.62,0.32-0.64c0.05-0.09,0.03-0.11-0.19-0.19c-0.02-0.01-0.18-0.06-0.36-0.12
				c-0.17-0.06-0.37-0.12-0.43-0.14c-0.29-0.1-0.76-0.23-1.34-0.39c-0.5-0.13-0.64-0.17-0.83-0.21c-0.1-0.02-0.2-0.05-0.23-0.06
				c-0.03-0.01-0.11-0.03-0.18-0.04c-0.2-0.04-0.29-0.06-0.48-0.1c-0.7-0.15-1.31-0.21-2.34-0.22
				C17.52,10.95,17.12,10.95,17.08,10.96"/>
		</g>
	</g>
</g>
</svg>
