<?xml version="1.0" encoding="utf-8"?>
<!-- Generator: Adobe Illustrator 26.0.2, SVG Export Plug-In . SVG Version: 6.00 Build 0)  -->
<svg version="1.1" id="Layer_1" xmlns="http://www.w3.org/2000/svg" xmlns:xlink="http://www.w3.org/1999/xlink" x="0px" y="0px"
	 viewBox="0 0 32 32" style="enable-background:new 0 0 32 32;" xml:space="preserve">
<style type="text/css">
	.st0{fill:#44B66C;}
	.st1{fill:#FFFFFF;}
</style>
<path class="st0" d="M27.6,12.41l-0.81-1.92c0,0,1.88-4.24,1.71-4.4l-2.49-2.43c-0.17-0.17-4.41,1.77-4.41,1.77l-1.96-0.79
	c0,0-1.73-4.3-1.97-4.3h-3.51c-0.24,0-1.84,4.31-1.84,4.31l-1.95,0.79c0,0-4.33-1.84-4.5-1.68L3.39,6.19
	C3.22,6.36,5.2,10.52,5.2,10.52l-0.81,1.92c0,0-4.39,1.69-4.39,1.92v3.44c0,0.24,4.4,1.81,4.4,1.81l0.81,1.91
	c0,0-1.88,4.24-1.72,4.4l2.49,2.43c0.17,0.17,4.41-1.77,4.41-1.77l1.96,0.79c0,0,1.73,4.29,1.97,4.29h3.51
	c0.24,0,1.84-4.31,1.84-4.31l1.96-0.79c0,0,4.32,1.84,4.49,1.68l2.49-2.43c0.17-0.17-1.81-4.32-1.81-4.32l0.81-1.92
	c0,0,4.39-1.69,4.39-1.93v-3.44C32,13.97,27.6,12.41,27.6,12.41L27.6,12.41z"/>
<g id="Layer_2_00000006693389842383697160000016277831733099867009_">
	<path id="path0" class="st1" d="M16.98,11.8c-0.05,0-0.22,0.02-0.38,0.03c-0.28,0.02-0.7,0.07-0.77,0.09
		c-0.02,0.01-0.09,0.02-0.17,0.03c-0.55,0.09-1.22,0.31-1.61,0.52c-0.07,0.04-0.14,0.08-0.17,0.09c-0.09,0.03-0.66,0.43-0.87,0.61
		c-1.56,1.28-2.39,3.28-2.04,4.94c0.04,0.2,0.05,0.2,0.19,0.1c0.23-0.17,0.43-0.3,0.71-0.46c0.16-0.09,0.87-0.44,0.9-0.44
		c0,0,0.06-0.02,0.12-0.05c0.62-0.29,2.43-0.91,3.34-1.15c0.03-0.01,0.19-0.05,0.35-0.09c0.86-0.24,1.01-0.27,1.01-0.23
		c0,0.01-0.05,0.03-0.11,0.05c-0.3,0.1-1.1,0.43-1.14,0.46c-0.01,0.01-0.03,0.02-0.05,0.02c-0.01,0-0.09,0.03-0.16,0.06
		c-0.07,0.03-0.14,0.06-0.15,0.06c-0.01,0-0.08,0.03-0.17,0.07c-0.09,0.04-0.16,0.07-0.17,0.07c-0.01,0-0.09,0.04-0.19,0.08
		c-0.1,0.05-0.19,0.08-0.19,0.08c-0.09,0-2.11,1.06-2.75,1.44c-0.15,0.09-0.27,0.16-0.27,0.16c-0.01,0-0.2,0.12-0.84,0.53
		c-0.71,0.45-1.89,1.28-2.61,1.85c-0.09,0.07-0.19,0.15-0.23,0.18c-0.63,0.49-0.71,0.58-0.35,0.39c0.8-0.42,1.7-0.84,2.35-1.1
		c0.39-0.16,0.81-0.27,1.09-0.31l0.12-0.01l0.29,0.29c0.76,0.76,1.58,1.15,2.79,1.32c0.29,0.04,1.21,0.03,1.43-0.01
		c0.06-0.01,0.21-0.04,0.31-0.06c0.11-0.02,0.23-0.04,0.26-0.05c0.04-0.01,0.12-0.03,0.2-0.05c1.39-0.36,2.58-1.22,3.64-2.64
		c0.02-0.03,0.12-0.15,0.21-0.27s0.19-0.25,0.21-0.28c0.02-0.03,0.08-0.12,0.13-0.19c0.55-0.78,1.33-2.05,1.83-3
		c0.05-0.1,0.14-0.27,0.2-0.37c0.05-0.1,0.22-0.44,0.38-0.75c0.16-0.32,0.29-0.59,0.3-0.61c0.04-0.08,0.03-0.1-0.18-0.19
		c-0.02-0.01-0.18-0.06-0.35-0.12c-0.17-0.05-0.36-0.12-0.42-0.14c-0.27-0.09-0.73-0.22-1.29-0.37c-0.48-0.13-0.61-0.16-0.8-0.2
		c-0.09-0.02-0.19-0.04-0.22-0.05s-0.11-0.03-0.18-0.04c-0.19-0.04-0.28-0.05-0.46-0.09c-0.67-0.15-1.26-0.2-2.26-0.21
		C17.4,11.79,17.02,11.8,16.98,11.8"/>
</g>
</svg>
